<svg xmlns="http://www.w3.org/2000/svg" width="16" height="16" viewBox="0 0 16 16" fill="none">
  <path d="M7.99995 0.168945C3.82495 0.168945 0.449951 3.54395 0.449951 7.71895C0.449951 11.8939 3.82495 15.2939 7.99995 15.2939C12.175 15.2939 15.575 11.8939 15.575 7.71895C15.575 3.54395 12.175 0.168945 7.99995 0.168945ZM7.99995 14.1689C4.44995 14.1689 1.57495 11.2689 1.57495 7.71895C1.57495 4.16895 4.44995 1.29395 7.99995 1.29395C11.55 1.29395 14.45 4.19395 14.45 7.74395C14.45 11.2689 11.55 14.1689 7.99995 14.1689Z" fill="#1A1A1A"/>
  <path d="M10.3 5.39385C10.075 5.16885 9.72498 5.16885 9.49998 5.39385L7.99998 6.91885L6.47498 5.39385C6.24998 5.16885 5.89998 5.16885 5.67498 5.39385C5.44998 5.61885 5.44998 5.96885 5.67498 6.19385L7.19998 7.71885L5.67498 9.24385C5.44998 9.46885 5.44998 9.81885 5.67498 10.0438C5.77498 10.1438 5.92498 10.2188 6.07498 10.2188C6.22498 10.2188 6.37498 10.1688 6.47498 10.0438L7.99998 8.51885L9.52497 10.0438C9.62497 10.1438 9.77498 10.2188 9.92498 10.2188C10.075 10.2188 10.225 10.1688 10.325 10.0438C10.55 9.81885 10.55 9.46885 10.325 9.24385L8.79998 7.71885L10.325 6.19385C10.525 5.96885 10.525 5.61885 10.3 5.39385Z" fill="#1A1A1A"/>
</svg>