<svg xmlns="http://www.w3.org/2000/svg" width="20" height="21" viewBox="0 0 20 21" fill="none">
  <path d="M10.5719 12.0974C12.5031 12.0974 14.1031 10.5286 14.1406 8.59736C14.1437 8.51611 14.1125 8.43486 14.0531 8.37236C13.9938 8.31299 13.9125 8.27861 13.8281 8.27861H10.8844V5.26611C10.8844 5.09424 10.7438 4.95361 10.5719 4.95361C8.60313 4.95361 7 6.55674 7 8.52549C7 10.4942 8.60313 12.0974 10.5719 12.0974Z" fill="#1A1A1A"/>
  <path d="M11.8877 7.66924H15.1439C15.3064 7.66924 15.4439 7.54111 15.4564 7.37861V7.28799C15.4564 5.31924 13.8564 3.71924 11.8877 3.71924C11.7127 3.71924 11.5752 3.85674 11.5752 4.03174V7.35674C11.5752 7.52861 11.7127 7.66924 11.8877 7.66924Z" fill="#1A1A1A"/>
  <path d="M7.73563 12.7192H7.3125C7.13991 12.7192 7 12.8591 7 13.0317V13.4552C7 13.6278 7.13991 13.7677 7.3125 13.7677H7.73563C7.90821 13.7677 8.04813 13.6278 8.04813 13.4552V13.0317C8.04813 12.8591 7.90821 12.7192 7.73563 12.7192Z" fill="#1A1A1A"/>
  <path d="M8.52832 13.2427C8.52832 13.4152 8.66801 13.5552 8.84082 13.5552H17.0621C17.2349 13.5552 17.3746 13.4152 17.3746 13.2427C17.3746 13.0702 17.2349 12.9302 17.0621 12.9302H8.84082C8.66801 12.9302 8.52832 13.0702 8.52832 13.2427Z" fill="#1A1A1A"/>
  <path d="M7.73563 14.2817H7.3125C7.13991 14.2817 7 14.4216 7 14.5942V15.0177C7 15.1903 7.13991 15.3302 7.3125 15.3302H7.73563C7.90821 15.3302 8.04813 15.1903 8.04813 15.0177V14.5942C8.04813 14.4216 7.90821 14.2817 7.73563 14.2817Z" fill="#1A1A1A"/>
  <path d="M17.0611 14.4927H8.83984C8.66703 14.4927 8.52734 14.6327 8.52734 14.8052C8.52734 14.9777 8.66703 15.1177 8.83984 15.1177H17.0611C17.2339 15.1177 17.3736 14.9777 17.3736 14.8052C17.3736 14.6327 17.2339 14.4927 17.0611 14.4927Z" fill="#1A1A1A"/>
  <path d="M7.73563 15.8442H7.3125C7.13991 15.8442 7 15.9841 7 16.1567V16.5802C7 16.7528 7.13991 16.8927 7.3125 16.8927H7.73563C7.90821 16.8927 8.04813 16.7528 8.04813 16.5802V16.1567C8.04813 15.9841 7.90821 15.8442 7.73563 15.8442Z" fill="#1A1A1A"/>
  <path d="M17.0611 16.0552H8.83984C8.66703 16.0552 8.52734 16.1952 8.52734 16.3677C8.52734 16.5402 8.66703 16.6802 8.83984 16.6802H17.0611C17.2339 16.6802 17.3736 16.5402 17.3736 16.3677C17.3736 16.1952 17.2339 16.0552 17.0611 16.0552Z" fill="#1A1A1A"/>
  <path d="M19.0625 1.53491H4.32188C4.15 1.53491 4.00938 1.67554 4.00938 1.84741V7.87866H0.9375C0.765625 7.87866 0.625 8.01929 0.625 8.19116V17.9005C0.625 19.0005 1.52187 19.9005 2.62812 19.9005L2.63125 19.9037H17.3688C17.3688 19.9037 17.3688 19.9005 17.3719 19.9005C18.475 19.9005 19.375 19.0037 19.375 17.9005V1.84741C19.375 1.67554 19.2344 1.53491 19.0625 1.53491ZM18 17.2195C18 17.9789 18.1281 18.5945 17.3688 18.5945C16.6156 18.5945 16.6156 18.5976 16.6156 18.5976H4.95C5.30313 18.2226 5.5 17.7351 5.5 17.2195V2.71948H18V17.2195Z" fill="#1A1A1A"/>
</svg>