<svg xmlns="http://www.w3.org/2000/svg" width="20" height="20" viewBox="0 0 20 20" fill="none">
  <path d="M5.20829 3.3335C5.20829 2.98832 5.48811 2.7085 5.83329 2.7085C6.17846 2.7085 6.45829 2.98832 6.45829 3.3335V15.158L8.72473 12.8916C8.9688 12.6475 9.36444 12.6475 9.60851 12.8916C9.85259 13.1357 9.85259 13.5313 9.60851 13.7754L6.27518 17.1087C6.0311 17.3528 5.63547 17.3528 5.39139 17.1087L2.05806 13.7754C1.81398 13.5313 1.81398 13.1357 2.05806 12.8916C2.28689 12.6628 2.64916 12.6482 2.89465 12.8485L2.94185 12.8916L5.20829 15.158V3.3335ZM12.5 9.37516C12.8451 9.37516 13.125 9.65498 13.125 10.0002C13.125 10.3453 12.8451 10.6252 12.5 10.6252H9.16662C8.82144 10.6252 8.54162 10.3453 8.54162 10.0002C8.54162 9.65498 8.82144 9.37516 9.16662 9.37516H12.5ZM15 6.04183C15.3451 6.04183 15.625 6.32165 15.625 6.66683C15.625 7.01201 15.3451 7.29183 15 7.29183H9.16662C8.82144 7.29183 8.54162 7.01201 8.54162 6.66683C8.54162 6.32165 8.82144 6.04183 9.16662 6.04183H15ZM17.5 2.7085C17.8451 2.7085 18.125 2.98832 18.125 3.3335C18.125 3.67867 17.8451 3.9585 17.5 3.9585H9.16662C8.82144 3.9585 8.54162 3.67867 8.54162 3.3335C8.54162 2.98832 8.82144 2.7085 9.16662 2.7085H17.5Z" fill="#0E0E0E"/>
</svg>